<?xml version="1.0" encoding="UTF-8"?><svg id="Vrstva_1" xmlns="http://www.w3.org/2000/svg" viewBox="0 0 1132.1 171"><path d="M28.2,7.7h59.9c22.5,0,40.3,6.4,53.4,19.2s17.5,31.4,13.2,55.7l-1.8,10c-4.2,24.4-15.2,43-32.8,55.8-17.6,12.8-37.7,19.2-60.2,19.2H0L28.2,7.7h0ZM64.6,134.8c9.6,0,18.1-3.2,25.6-9.6s12.5-16.8,15.1-31.2l2.2-12.5c2.5-14.4,1.1-24.8-4.1-31.1s-12.6-9.5-22.2-9.5h-13l-16.6,94h13v-.1Z"/><path d="M161,108.1c0-17.4,4.9-31.7,14.7-42.7,9.8-11.1,22.9-16.6,39.3-16.6s29.5,5.5,39.3,16.6c9.8,11.1,14.7,25.3,14.7,42.7v3.5c0,17.4-4.9,31.7-14.7,42.7s-22.9,16.6-39.3,16.6-29.5-5.5-39.3-16.6-14.7-25.3-14.7-42.7v-3.5h0ZM171.6,111.6c0,14.4,3.7,26.3,11,35.7,7.4,9.4,18.2,14.1,32.5,14.1s25.1-4.7,32.5-14.1,11-21.3,11-35.7v-3.5c0-14.4-3.7-26.3-11-35.7-7.4-9.4-18.2-14.1-32.5-14.1s-25.1,4.7-32.5,14.1-11,21.3-11,35.7v3.5Z"/><path d="M300.8,7.7l35.7,99c.6,1.7,1,3.3,1.2,4.8s.5,3.5.9,5.9h.9c.4-2.4.7-4.4,1-6s.7-3.2,1.1-4.8L378.5,7.6h42.7l-59.3,159.8h-52.4L249.9,7.7h50.9Z"/><path d="M402.1,108.1c0-17.4,4.8-31.7,14.3-42.7,9.5-11.1,22.1-16.6,37.7-16.6s27.6,5.1,36,15.3c8.4,10.2,12.6,24.2,12.6,42.1v7.1h-90.5v-13.8h73.3v-1.5c0-10.5-2.6-19-7.7-25.3-5.2-6.3-12.9-9.5-23.2-9.5s-20.3,4.3-26.2,12.9c-5.9,8.6-8.8,19.3-8.8,32.1v3.5c0,12.8,3.1,23.5,9.2,32.1,6.1,8.6,15.8,12.9,28.9,12.9s14.1-1.6,19.5-4.7c5.4-3.1,9.9-6.9,13.5-11.4l11.1,9.1c-3.7,5.3-9.2,10.1-16.8,14.6-7.5,4.4-16.6,6.6-27.4,6.6-17.9,0-31.6-5.5-41.1-16.6-9.6-11.1-14.3-25.3-14.3-42.7v-3.5h-.1Z"/><path d="M511.6,107.7c0-17.7,4.9-31.9,14.8-42.6,9.8-10.6,22.4-16,37.6-16s12,1.1,17,3.4c4.9,2.3,8.6,5.2,10.9,8.8V0h44.6v167.6h-43.4l-.5-11.6h-.4c-1.9,4.2-5.4,7.5-10.6,10.1s-10.9,3.8-17.3,3.8c-16.8,0-29.7-5.3-38.9-16s-13.7-24.9-13.7-42.5v-3.5h0l-.1-.2ZM562.2,131.4c3.2,3.9,7.5,5.8,12.9,5.8s7.4-1,10.2-3.1,4.9-4.9,6.4-8.3v-32.6c-1.3-3.5-3.2-6.3-5.7-8.4s-6-3.1-10.7-3.1-9.6,2-12.9,5.9-5,9.6-5,17v9.9c0,7.4,1.6,13,4.8,16.9h0Z"/><path d="M650.5,7.7h12.5l86.9,134.4c1.5,2.3,2.9,4.5,4.2,6.8,1.3,2.2,2.5,4.2,3.5,6h.9c-.2-2.2-.3-4.3-.4-6.3s-.2-4.1-.2-6.3V7.7h10.3v159.9h-12.6l-87-134.8c-1.5-2.3-3-4.7-4.7-7.2s-2.7-4.6-3.2-6.1h-1c.4,2.3.6,5,.8,7.8.2,2.8.2,5.4.2,7.6v132.6h-10.2V7.7h0Z"/><path d="M780.6,108c3.2-18,11-32.4,23.6-43.2s27.5-16.2,44.8-16.2,30.4,5.4,39.2,16.2c8.8,10.8,11.5,25.2,8.4,43.2l-.7,3.5c-3.2,17.9-11,32.3-23.6,43.2-12.6,10.8-27.5,16.3-44.9,16.3s-30.3-5.4-39-16.3-11.5-25.2-8.4-43.2l.7-3.5h-.1ZM809,112.7c-2,11.1-1.1,19.9,2.7,26.4s10.3,9.7,19.6,9.7,17-3.2,23-9.7,10-15.3,12-26.4l1.1-5.9c1.9-11.2,1-20-2.8-26.5-3.8-6.4-10.3-9.7-19.5-9.7s-16.8,3.2-23,9.7c-6.2,6.4-10.2,15.3-12.1,26.5l-1.1,5.9h.1Z"/><path d="M907.1,122.6h21.1v1.3c0,9.7,3.3,16.9,9.8,21.8,6.5,4.8,15.6,7.2,27.4,7.2s20.7-2.5,26.9-7.5,9.3-11.5,9.3-19.6-3-13.2-9.1-17.6c-6-4.4-17.4-9-34.2-13.8-17.4-5.1-29.8-11-37-17.7-7.2-6.8-10.9-16.4-10.9-28.8s4.8-22.8,14.3-31.1,22.7-12.4,39.5-12.4,30.2,4.4,40.2,13.1,14.9,19.8,14.9,33.3v1.3h-21.1v-1.3c0-8.5-2.9-15.3-8.6-20.5-5.7-5.2-14.2-7.8-25.5-7.8s-19.6,2.2-24.9,6.7c-5.3,4.5-8,10.5-8,18.2s2.8,12.4,8.2,16.5c5.5,4,16.8,8.5,33.9,13.3s29.6,10.9,37.3,18.1,11.6,17.5,11.6,30.6-5.1,24-15.4,32.4-24.2,12.6-41.7,12.6-31.7-4.2-42.3-12.6-15.9-19.9-15.9-34.4v-1.3h.2Z"/><path d="M1020,52.1h67.8v9.2h-67.8v-9.2ZM1045.7,57.4V23.5h10.4v115.2c0,8.1,1.4,13.8,4.1,17.3s7.1,5.2,13,5.2,4.4-.2,6.5-.6c2.1-.4,4.1-1,6.2-1.7v9.4c-1.7.7-3.9,1.2-6.5,1.8-2.7.5-5.6.8-8.8.8-7.6,0-13.7-2.6-18.1-7.7-4.5-5.2-6.7-13.3-6.7-24.4V57.4h-.1Z"/><path d="M1098.8,7.1c3.3-3.4,8.1-5.1,14.2-5.1s10.9,1.7,14.2,5.1c3.3,3.4,4.9,7.5,4.9,12.5s-1.7,9.2-4.9,12.5c-3.3,3.4-8.1,5.1-14.3,5.1s-10.9-1.7-14.2-5.1c-3.3-3.4-4.9-7.5-4.9-12.5s1.7-9.2,5-12.5h0ZM1096.6,51.7h32.8v115.9h-32.8V51.7h0Z"/><path d="M783.4,13.6l11.2,5-1.2-12.2h10.2l-1.2,12.2,11.2-5,3.1,9.4-11.9,2.6,8.1,9.1-8.2,5.8-6.2-10.6-6.2,10.6-8.2-5.8,8.1-9.1-12-2.6,3.2-9.4h0Z"/><path d="M198.4,105.1l15.1,5.4-.5-16h3.3l-.5,16,15.1-5.4,1,3.3-15.4,4.4,9.8,12.6-2.6,2.1-9.1-13.2-9.1,13.2-2.6-2.1,9.8-12.6-15.4-4.4,1-3.3h.1Z"/></svg>