<?xml version="1.0" encoding="UTF-8"?>
<svg id="Vrstva_1" xmlns="http://www.w3.org/2000/svg" version="1.1" viewBox="0 0 1183.1 182.3">
  <!-- Generator: Adobe Illustrator 29.6.0, SVG Export Plug-In . SVG Version: 2.1.1 Build 207)  -->
  <defs>
    <style>
      .st0 {
        fill: #f3f4f6;
      }
    </style>
  </defs>
  <path class="st0" d="M2.8,15.7h133.8v33.8h-43.7v126.1h-46.3V49.5H2.8V15.7h0Z"/>
  <path class="st0" d="M121.2,116c3.2-18,11-32.4,23.6-43.2s27.5-16.2,44.8-16.2,30.4,5.4,39.2,16.2c8.8,10.8,11.6,25.2,8.4,43.2l-.7,3.5c-3.2,17.9-11,32.3-23.6,43.2-12.6,10.8-27.5,16.3-44.9,16.3s-30.3-5.4-39-16.3-11.5-25.2-8.4-43.2l.7-3.5h0ZM149.6,120.7c-2,11.1-1.1,19.9,2.7,26.4s10.3,9.7,19.6,9.7,17-3.2,23-9.7,10.1-15.3,12-26.4l1.1-5.9c1.9-11.2,1-20-2.8-26.5-3.8-6.4-10.3-9.7-19.5-9.7s-16.8,3.2-23,9.7c-6.2,6.4-10.2,15.3-12.1,26.5l-1.1,5.9h.1Z"/>
  <path class="st0" d="M256.5,15.7h13.3l57,134.5c.9,2.2,1.9,4.5,3.1,7s2.1,4.6,2.6,6.3h.9c.7-1.7,1.6-3.8,2.6-6.3s2-4.8,3-7L396.3,15.7h13v159.9h-10.5V44.7c0-2.2,0-4.7.3-7.4.2-2.8.3-5.2.5-7.4h-.9c-.5,2.2-1.3,4.7-2.3,7.4-1,2.8-2,5.2-3,7.4l-55.7,130.9h-10.1l-55.7-130.8c-.9-2.2-2-4.7-3.1-7.4-1.1-2.8-1.9-5.2-2.3-7.4h-.9c.2,2.2.3,4.7.6,7.4.2,2.8.3,5.2.3,7.4v130.8h-10V15.7h0Z"/>
  <path class="st0" d="M432.1,15.7h115v33.8h-69.2v27.5h59.3v33.1h-59.3v32h70.4v33.6h-116.2V15.7h0Z"/>
  <path class="st0" d="M552.2,116c0-18,5.2-32.4,15.5-43.2,10.3-10.8,24.2-16.2,41.5-16.2s28.8,4.2,37.3,12.5c8.6,8.3,13,18.1,13.4,29.2v1.4c0,0-27.7,0-27.7,0v-1.1c0-5.6-1.9-10.5-5.7-14.4s-9.6-6-17.5-6-16.2,3.4-20.8,10.2c-4.6,6.8-6.9,15.6-6.9,26.4v5.9c0,10.8,2.2,19.5,6.8,26.4s11.4,10.2,20.8,10.2,14.4-2.1,18-6.2c3.6-4.1,5.3-8.9,5.3-14.3v-1h27.8v1.1c0,11.1-4.4,20.8-13.1,29.3-8.8,8.5-21.3,12.7-37.7,12.7s-31.2-5.4-41.5-16.3c-10.3-10.8-15.5-25.2-15.5-43.2v-3.5h0Z"/>
  <path class="st0" d="M672,6.9h10.3v119.3l63.7-66.1h14.2l-77.9,80v35.6h-10.3V6.9h0ZM701.5,110.7l8.5-7,55.5,71.9h-14.2l-49.8-64.9h0Z"/>
  <path class="st0" d="M769.9,90.7c0-26.4,7-46,21.1-58.9,14.1-12.9,32.2-19.3,54.6-19.3s40.6,6.4,54.9,19.3c14.3,12.9,21.5,32.5,21.5,58.9v9.9c0,26.4-7.2,46-21.5,58.9s-32.6,19.3-54.9,19.3-40.5-6.4-54.6-19.3c-14.1-12.9-21.1-32.5-21.1-58.9v-9.9ZM825.1,136.7c4.9,5.6,11.8,8.3,20.5,8.3s15.8-2.8,20.9-8.3c5.2-5.6,7.7-15.6,7.7-30v-22.1c0-14.5-2.6-24.5-7.7-30-5.2-5.5-12.1-8.3-20.9-8.3s-15.5,2.8-20.5,8.3c-4.9,5.5-7.4,15.5-7.4,30v22.1c0,14.4,2.5,24.4,7.4,30Z"/>
  <path class="st0" d="M940.5,60.1l34.3,90.9c1.1,3,2.1,5.5,3,7.6s1.7,4.3,2.2,6.7h.8c.7-2.3,1.4-4.6,2.2-6.7.8-2.1,1.8-4.7,3.1-7.6l34.4-90.9h11.4l-46.6,115.5h-9.9l-46.6-115.5h11.7Z"/>
  <path class="st0" d="M1041.2,112.3c11.1-6.4,24.2-9.7,39.3-9.8h22.4l1.2-6.5c.9-5.1.3-9.3-1.8-12.5-2.1-3.2-6.5-4.8-13.2-4.8s-11.9,1.3-15.2,4c-3.3,2.6-5.3,5.9-6,9.8l-.2,1.7h-32.2l.2-1.7c1.9-10.5,8.3-19.1,19.2-25.9,10.9-6.8,24.1-10.2,39.4-10.2s27,3.2,34.6,9.7,10.2,16.5,7.8,30l-9.6,53.5c-.8,4.7-1.1,9.2-1,13.4s.7,7.8,1.5,10.8l-.3,1.8h-32.1c-.6-1.7-1-3.9-1.2-6.7s-.2-5.4,0-8c-3,4.3-8,8.2-14.9,11.6-7,3.4-15.2,5.1-24.6,5.1s-20.2-3-26.9-9c-6.7-6-8.9-15.1-6.7-27.2,2.3-13,9-22.7,20.1-29.1h0ZM1056.6,150.9c2.4,3.2,6.8,4.7,13.2,4.7s12.9-2.2,18.2-6.5c5.2-4.4,8.4-9.6,9.5-15.7l1.9-11h-17.9c-8.3,0-14.7,1.4-19.1,4.2-4.5,2.8-7.2,6.8-8.1,12-.8,5,0,9.2,2.4,12.3h0Z"/>
  <path class="st0" d="M1144.8,145.8l11.2,5-1.2-12.2h10.2l-1.2,12.2,11.2-5,3.1,9.4-11.9,2.6,8.1,9.1-8.2,5.8-6.2-10.6-6.2,10.6-8.2-5.8,8.1-9.1-11.9-2.6,3.2-9.4h0Z"/>
</svg>