<?xml version="1.0" encoding="UTF-8"?>
<svg id="Vrstva_1" xmlns="http://www.w3.org/2000/svg" version="1.1" viewBox="0 0 460 165.6">
  <!-- Generator: Adobe Illustrator 29.2.1, SVG Export Plug-In . SVG Version: 2.1.0 Build 116)  -->
  <defs>
    <style>
      .st0 {
        fill: #075547;
      }
    </style>
  </defs>
  <path class="st0" d="M0,98.1c0-20.2,5.4-35.2,16.1-45.1,10.8-9.9,24.7-14.8,41.8-14.8s31.1,4.9,42,14.8,16.4,24.9,16.4,45.1v7.6c0,20.2-5.5,35.2-16.4,45.1s-25,14.8-42,14.8-31-4.9-41.8-14.8C5.4,140.9,0,125.9,0,105.7v-7.6h0ZM42.3,133.4c3.8,4.3,9,6.4,15.7,6.4s12.1-2.1,16-6.4c3.9-4.3,5.9-11.9,5.9-22.9v-16.9c0-11.1-2-18.8-5.9-23s-9.3-6.3-16-6.3-11.9,2.1-15.7,6.3-5.7,11.9-5.7,23v16.9c0,11.1,1.9,18.7,5.7,22.9Z"/>
  <path class="st0" d="M162.6,40.7h10.2l43.6,103c.7,1.7,1.4,3.5,2.4,5.4.9,1.9,1.6,3.5,2,4.8h.7c.6-1.3,1.2-2.9,2-4.8.8-1.9,1.5-3.7,2.3-5.4l43.9-103h9.9v122.4h-8.1V62.9c0-1.7,0-3.6.2-5.7.1-2.1.3-4,.4-5.7h-.7c-.4,1.7-1,3.6-1.8,5.7-.8,2.1-1.5,4-2.3,5.7l-42.6,100.2h-7.7l-42.6-100.2c-.7-1.7-1.5-3.6-2.4-5.7-.8-2.1-1.4-4-1.8-5.7h-.7c.1,1.7.2,3.6.4,5.7.2,2.1.2,4,.2,5.7v100.2h-7.7V40.7h0Z"/>
  <path class="st0" d="M302.5,74.7h14.1l-1.3,11.3h.5c3.9-4,8.3-7.2,13.4-9.6s10.4-3.5,16-3.5c8.9,0,15.6,2.5,20,7.6,4.4,5.1,5.6,13.6,3.5,25.4l-10.1,57.1h-15.6l10.1-57.3c1.2-7.1.5-12.1-2.1-15.2s-6.8-4.6-12.7-4.6-9.6,1.3-13.9,4-7.9,6.2-10.8,10.4l-11,62.6h-15.6l15.6-88.5h0Z"/>
  <path class="st0" d="M382.3,40.7h76.9v13.3h-60.7v39.4h53v13.3h-53v43.2h61.6v13.3h-77.7V40.7h0s0,0,0,0ZM392.7,0h14l14,15.3,13.5-15.3h14.5l-21.6,28.6h-12.1L392.7,0h0Z"/>
  <path class="st0" d="M126.2,111.3l8.6,3.8-.9-9.3h7.8l-.9,9.3,8.6-3.8,2.4,7.2-9.1,2,6.2,7-6.3,4.4-4.7-8.1-4.7,8.1-6.3-4.4,6.2-7-9.2-2,2.4-7.2h0Z"/>
</svg>