<?xml version="1.0" encoding="UTF-8"?><svg id="Vrstva_1" xmlns="http://www.w3.org/2000/svg" viewBox="0 0 460 165.57"><path d="M0,98.13c0-20.18,5.38-35.2,16.15-45.07,10.76-9.87,24.69-14.8,41.8-14.8s31.05,4.93,42,14.8,16.44,24.89,16.44,45.07v7.56c0,20.18-5.48,35.2-16.44,45.07-10.96,9.87-24.96,14.8-42,14.8s-31.03-4.93-41.8-14.8C5.38,140.9,0,125.88,0,105.7v-7.56ZM42.26,133.37c3.78,4.26,9.01,6.39,15.68,6.39s12.07-2.13,16.02-6.39c3.95-4.26,5.93-11.91,5.93-22.95v-16.91c0-11.1-1.98-18.77-5.93-23s-9.29-6.35-16.02-6.35-11.9,2.11-15.68,6.35-5.67,11.9-5.67,23v16.91c0,11.05,1.89,18.7,5.67,22.95Z"/><path d="M162.57,40.7h10.18l43.64,103.01c.67,1.68,1.45,3.48,2.36,5.38.9,1.91,1.57,3.51,2.02,4.79h.67c.56-1.29,1.23-2.89,2.02-4.79.78-1.91,1.54-3.7,2.27-5.38l43.89-103.01h9.92v122.44h-8.07V62.9c0-1.68.07-3.58.21-5.67.14-2.11.27-4,.38-5.67h-.67c-.39,1.68-.98,3.58-1.77,5.67-.79,2.11-1.54,4-2.27,5.67l-42.64,100.24h-7.73l-42.64-100.15c-.73-1.68-1.52-3.58-2.36-5.67-.84-2.11-1.43-4-1.77-5.67h-.67c.11,1.68.25,3.58.42,5.67.17,2.11.25,4,.25,5.67v100.15h-7.66V40.7h.02Z"/><path d="M302.46,74.67h14.13l-1.26,11.35h.51c3.87-4.03,8.32-7.22,13.37-9.55,5.05-2.33,10.37-3.49,15.98-3.49,8.91,0,15.57,2.53,19.98,7.61,4.4,5.08,5.57,13.55,3.49,25.43l-10.09,57.1h-15.64l10.09-57.27c1.23-7.07.54-12.12-2.06-15.17s-6.83-4.59-12.66-4.59c-4.99,0-9.63,1.35-13.92,4.03s-7.89,6.16-10.8,10.43l-11.02,62.56h-15.64l15.56-88.46h0Z"/><path d="M382.3,40.7h76.86v13.28h-60.71v39.35h52.97v13.28h-52.97v43.22h61.56v13.28h-77.7V40.69v.02ZM392.73,0h14.04l13.96,15.31,13.45-15.31h14.55l-21.61,28.59h-12.11L392.72,0h0Z"/><path d="M126.17,111.33l8.56,3.8-.92-9.34h7.78l-.92,9.34,8.58-3.8,2.4,7.19-9.13,2.02,6.22,7-6.3,4.42-4.74-8.1-4.74,8.1-6.3-4.42,6.22-7-9.15-2.02,2.42-7.19h.02Z"/></svg>