<?xml version="1.0" encoding="UTF-8"?>
<svg id="Vrstva_1" xmlns="http://www.w3.org/2000/svg" version="1.1" viewBox="0 0 847 191.4">
  <!-- Generator: Adobe Illustrator 29.2.1, SVG Export Plug-In . SVG Version: 2.1.0 Build 116)  -->
  <path d="M54.1,26.8l35.7,99c.6,1.7,1,3.3,1.2,4.8.2,1.5.5,3.5.9,5.9h.9c.4-2.4.7-4.4,1-6,.3-1.6.7-3.2,1.2-4.8l36.9-99h42.7l-59.3,159.8h-52.4L3.2,26.8h50.8Z"/>
  <path d="M163.9,176.8l75-96.1h-73.9v-9.6h87.1v9.9l-75.2,96.1h79.2v9.6h-92.1v-9.9h0Z"/>
  <path d="M246.8,126.8c0-17.7,4.9-31.9,14.8-42.6,9.9-10.6,22.4-16,37.6-16s12,1.1,17,3.4c4.9,2.3,8.6,5.2,10.9,8.8V19.1h44.6v167.6h-43.4l-.5-11.6h-.4c-1.9,4.2-5.4,7.5-10.6,10s-10.9,3.8-17.3,3.8c-16.8,0-29.7-5.3-38.9-16-9.1-10.7-13.7-24.9-13.7-42.5v-3.5h0ZM297.4,150.4c3.2,3.9,7.5,5.8,12.9,5.8s7.4-1,10.2-3.1,4.9-4.9,6.4-8.3v-32.6c-1.3-3.5-3.2-6.3-5.7-8.4-2.5-2-6-3.1-10.6-3.1s-9.6,2-12.9,5.9c-3.3,3.9-5,9.6-5,17v9.9c0,7.4,1.6,13,4.8,16.9h0Z"/>
  <path d="M382,127.1c0-17.4,4.8-31.7,14.3-42.7,9.5-11.1,22.1-16.6,37.7-16.6s27.6,5.1,36,15.3c8.4,10.2,12.6,24.2,12.6,42.1v7.1h-90.5v-13.8h73.3v-1.5c0-10.5-2.6-19-7.7-25.3-5.2-6.3-12.9-9.5-23.2-9.5s-20.3,4.3-26.2,12.9c-5.9,8.6-8.8,19.3-8.8,32.1v3.5c0,12.8,3.1,23.5,9.2,32.1,6.1,8.6,15.8,12.9,28.9,12.9s14.1-1.5,19.5-4.7c5.4-3.1,9.9-6.9,13.5-11.4l11.1,9.1c-3.7,5.3-9.2,10.1-16.8,14.5-7.5,4.4-16.6,6.7-27.4,6.7-17.9,0-31.6-5.5-41.1-16.6-9.6-11.1-14.3-25.3-14.3-42.7v-3.5h0ZM402.1,18.3h14.7l17.2,20,17-20h14.5l-26.1,34.4h-10.9l-26.5-34.4Z"/>
  <path d="M502.4,18h10.3v168.7h-10.3V18h0Z"/>
  <path d="M539.6,124c10.9-6.5,23.8-9.7,38.7-9.7h23.6l1.2-7c1-5.7.4-10.4-1.9-14-2.3-3.6-7.2-5.4-14.7-5.4s-13,1.5-16.7,4.5c-3.7,3-5.9,6.5-6.6,10.6l-.2,1.3h-28.2l.2-1.3c1.8-10,7.8-18.3,18.2-25.1s23-10.2,38-10.2,26,3.3,33.3,9.8,9.7,16.5,7.2,29.9l-9.3,53.2c-.8,4.8-1.2,9.2-1.2,13.5s.5,7.8,1.4,10.9l-.3,1.8h-27.9c-.7-1.8-1.1-4-1.3-6.8-.2-2.8-.2-5.5.1-8.2-3.3,4.5-8.4,8.5-15.2,12-6.8,3.5-15,5.3-24.5,5.3s-20.1-3.1-26.7-9.2-8.8-15.1-6.7-27.1c2.2-12.6,8.8-22.1,19.7-28.6h0ZM551.5,163.7c2.6,3.3,7.4,5,14.4,5s13.9-2.4,19.9-7.1,9.6-10.2,10.6-16.4l2.3-12.9h-19.9c-8.9,0-15.9,1.6-20.9,4.7-5,3.1-8,7.6-9,13.3-1,5.6-.1,10,2.5,13.3ZM606.7,6.4l19.5,14-40.1,32.3-13.1-11.9,33.6-34.4h0Z"/>
  <path d="M654.4,26.8h22l72.4,112c1.5,2.2,2.8,4.4,4.1,6.6,1.3,2.2,2.4,4.2,3.2,6h.9c0-2.2-.1-4.7-.2-7.4,0-2.8,0-5.2,0-7.4V26.8h20.7v159.9h-22l-72.4-112c-1.5-2.2-2.8-4.4-4.1-6.6-1.2-2.2-2.4-4.2-3.4-6h-.8c0,2.2.1,4.7.2,7.4,0,2.8,0,5.2,0,7.4v109.8h-20.7V26.8Z"/>
  <path d="M820.3,4.1l24.6,15.3-35,33.3-17.7-13.1,28.1-35.5h0ZM799.4,70.8h32.8v115.9h-32.8v-115.9Z"/>
  <path d="M241.9,31.8l11.2,5-1.2-12.2h10.2l-1.2,12.2,11.2-5,3.1,9.4-11.9,2.6,8.1,9.1-8.2,5.8-6.2-10.6-6.2,10.6-8.2-5.8,8.1-9.1-11.9-2.6,3.2-9.4h0Z"/>
  <path d="M689.7,160.1l15.2,5.5-.5-16h3.3l-.5,16,15.1-5.5,1,3.3-15.4,4.4,9.8,12.6-2.6,2.1-9.1-13.2-9.1,13.2-2.6-2.1,9.8-12.6-15.4-4.4,1-3.3h0Z"/>
</svg>